<mxfile host="app.diagrams.net" agent="Mozilla/5.0 (X11; Linux x86_64; rv:131.0) Gecko/20100101 Firefox/131.0" version="24.8.1">
  <diagram name="Page-1" id="7zCOD9HxSMwUmOcUNHFz">
    <mxGraphModel dx="1513" dy="944" grid="1" gridSize="10" guides="1" tooltips="1" connect="1" arrows="1" fold="1" page="1" pageScale="1" pageWidth="850" pageHeight="1100" math="0" shadow="0">
      <root>
        <mxCell id="0" />
        <mxCell id="1" parent="0" />
        <mxCell id="iuLhSv0S5Rac431f_OxW-5" style="edgeStyle=orthogonalEdgeStyle;rounded=0;orthogonalLoop=1;jettySize=auto;html=1;entryX=0.5;entryY=0;entryDx=0;entryDy=0;" edge="1" parent="1" source="iuLhSv0S5Rac431f_OxW-1" target="iuLhSv0S5Rac431f_OxW-2">
          <mxGeometry relative="1" as="geometry" />
        </mxCell>
        <mxCell id="iuLhSv0S5Rac431f_OxW-1" value="start" style="ellipse;whiteSpace=wrap;html=1;" vertex="1" parent="1">
          <mxGeometry x="260" y="40" width="120" height="80" as="geometry" />
        </mxCell>
        <mxCell id="iuLhSv0S5Rac431f_OxW-4" style="edgeStyle=orthogonalEdgeStyle;rounded=0;orthogonalLoop=1;jettySize=auto;html=1;entryX=0.5;entryY=0;entryDx=0;entryDy=0;" edge="1" parent="1" source="iuLhSv0S5Rac431f_OxW-2" target="iuLhSv0S5Rac431f_OxW-3">
          <mxGeometry relative="1" as="geometry" />
        </mxCell>
        <mxCell id="iuLhSv0S5Rac431f_OxW-2" value="input n (number of actions)" style="shape=parallelogram;perimeter=parallelogramPerimeter;whiteSpace=wrap;html=1;fixedSize=1;" vertex="1" parent="1">
          <mxGeometry x="250" y="170" width="140" height="60" as="geometry" />
        </mxCell>
        <mxCell id="iuLhSv0S5Rac431f_OxW-10" style="edgeStyle=orthogonalEdgeStyle;rounded=0;orthogonalLoop=1;jettySize=auto;html=1;entryX=0.5;entryY=0;entryDx=0;entryDy=0;" edge="1" parent="1" source="iuLhSv0S5Rac431f_OxW-3" target="iuLhSv0S5Rac431f_OxW-6">
          <mxGeometry relative="1" as="geometry" />
        </mxCell>
        <mxCell id="iuLhSv0S5Rac431f_OxW-3" value="balance = 0" style="rounded=1;whiteSpace=wrap;html=1;" vertex="1" parent="1">
          <mxGeometry x="260" y="280" width="120" height="60" as="geometry" />
        </mxCell>
        <mxCell id="iuLhSv0S5Rac431f_OxW-11" style="edgeStyle=orthogonalEdgeStyle;rounded=0;orthogonalLoop=1;jettySize=auto;html=1;entryX=0.5;entryY=0;entryDx=0;entryDy=0;" edge="1" parent="1" source="iuLhSv0S5Rac431f_OxW-6" target="iuLhSv0S5Rac431f_OxW-8">
          <mxGeometry relative="1" as="geometry" />
        </mxCell>
        <mxCell id="iuLhSv0S5Rac431f_OxW-6" value="int i = 0" style="rounded=1;whiteSpace=wrap;html=1;" vertex="1" parent="1">
          <mxGeometry x="260" y="390" width="120" height="60" as="geometry" />
        </mxCell>
        <mxCell id="iuLhSv0S5Rac431f_OxW-12" style="edgeStyle=orthogonalEdgeStyle;rounded=0;orthogonalLoop=1;jettySize=auto;html=1;entryX=0.5;entryY=0;entryDx=0;entryDy=0;" edge="1" parent="1" source="iuLhSv0S5Rac431f_OxW-8" target="iuLhSv0S5Rac431f_OxW-9">
          <mxGeometry relative="1" as="geometry" />
        </mxCell>
        <mxCell id="iuLhSv0S5Rac431f_OxW-18" value="true" style="edgeLabel;html=1;align=center;verticalAlign=middle;resizable=0;points=[];" vertex="1" connectable="0" parent="iuLhSv0S5Rac431f_OxW-12">
          <mxGeometry x="-0.16" relative="1" as="geometry">
            <mxPoint as="offset" />
          </mxGeometry>
        </mxCell>
        <mxCell id="iuLhSv0S5Rac431f_OxW-37" style="edgeStyle=orthogonalEdgeStyle;rounded=0;orthogonalLoop=1;jettySize=auto;html=1;exitX=0;exitY=0.5;exitDx=0;exitDy=0;entryX=1;entryY=0.5;entryDx=0;entryDy=0;" edge="1" parent="1" source="iuLhSv0S5Rac431f_OxW-8" target="iuLhSv0S5Rac431f_OxW-36">
          <mxGeometry relative="1" as="geometry" />
        </mxCell>
        <mxCell id="iuLhSv0S5Rac431f_OxW-41" value="false" style="edgeLabel;html=1;align=center;verticalAlign=middle;resizable=0;points=[];" vertex="1" connectable="0" parent="iuLhSv0S5Rac431f_OxW-37">
          <mxGeometry x="-0.2687" y="6" relative="1" as="geometry">
            <mxPoint x="-1" as="offset" />
          </mxGeometry>
        </mxCell>
        <mxCell id="iuLhSv0S5Rac431f_OxW-8" value="i &amp;lt; n" style="rhombus;whiteSpace=wrap;html=1;" vertex="1" parent="1">
          <mxGeometry x="260" y="500" width="120" height="80" as="geometry" />
        </mxCell>
        <mxCell id="iuLhSv0S5Rac431f_OxW-14" style="edgeStyle=orthogonalEdgeStyle;rounded=0;orthogonalLoop=1;jettySize=auto;html=1;entryX=0;entryY=0.5;entryDx=0;entryDy=0;" edge="1" parent="1" source="iuLhSv0S5Rac431f_OxW-9" target="iuLhSv0S5Rac431f_OxW-13">
          <mxGeometry relative="1" as="geometry" />
        </mxCell>
        <mxCell id="iuLhSv0S5Rac431f_OxW-9" value="&lt;div&gt;enter earn or spend (action)&lt;br&gt;&lt;/div&gt;&lt;div&gt;enter how much (value)&lt;br&gt;&lt;/div&gt;" style="shape=parallelogram;perimeter=parallelogramPerimeter;whiteSpace=wrap;html=1;fixedSize=1;" vertex="1" parent="1">
          <mxGeometry x="227.5" y="630" width="185" height="60" as="geometry" />
        </mxCell>
        <mxCell id="iuLhSv0S5Rac431f_OxW-16" style="edgeStyle=orthogonalEdgeStyle;rounded=0;orthogonalLoop=1;jettySize=auto;html=1;entryX=0.5;entryY=1;entryDx=0;entryDy=0;" edge="1" parent="1" source="iuLhSv0S5Rac431f_OxW-13" target="iuLhSv0S5Rac431f_OxW-15">
          <mxGeometry relative="1" as="geometry" />
        </mxCell>
        <mxCell id="iuLhSv0S5Rac431f_OxW-17" value="true" style="edgeLabel;html=1;align=center;verticalAlign=middle;resizable=0;points=[];" vertex="1" connectable="0" parent="iuLhSv0S5Rac431f_OxW-16">
          <mxGeometry x="-0.08" y="1" relative="1" as="geometry">
            <mxPoint as="offset" />
          </mxGeometry>
        </mxCell>
        <mxCell id="iuLhSv0S5Rac431f_OxW-20" style="edgeStyle=orthogonalEdgeStyle;rounded=0;orthogonalLoop=1;jettySize=auto;html=1;exitX=1;exitY=0.5;exitDx=0;exitDy=0;entryX=0.5;entryY=1;entryDx=0;entryDy=0;" edge="1" parent="1" source="iuLhSv0S5Rac431f_OxW-13" target="iuLhSv0S5Rac431f_OxW-19">
          <mxGeometry relative="1" as="geometry" />
        </mxCell>
        <mxCell id="iuLhSv0S5Rac431f_OxW-30" value="false" style="edgeLabel;html=1;align=center;verticalAlign=middle;resizable=0;points=[];" vertex="1" connectable="0" parent="iuLhSv0S5Rac431f_OxW-20">
          <mxGeometry x="-0.5158" relative="1" as="geometry">
            <mxPoint as="offset" />
          </mxGeometry>
        </mxCell>
        <mxCell id="iuLhSv0S5Rac431f_OxW-13" value="action = earn" style="rhombus;whiteSpace=wrap;html=1;" vertex="1" parent="1">
          <mxGeometry x="440" y="620" width="120" height="80" as="geometry" />
        </mxCell>
        <mxCell id="iuLhSv0S5Rac431f_OxW-25" style="edgeStyle=orthogonalEdgeStyle;rounded=0;orthogonalLoop=1;jettySize=auto;html=1;exitX=0.5;exitY=0;exitDx=0;exitDy=0;entryX=0.5;entryY=1;entryDx=0;entryDy=0;" edge="1" parent="1" source="iuLhSv0S5Rac431f_OxW-15" target="iuLhSv0S5Rac431f_OxW-21">
          <mxGeometry relative="1" as="geometry" />
        </mxCell>
        <mxCell id="iuLhSv0S5Rac431f_OxW-15" value="balance += value" style="rounded=1;whiteSpace=wrap;html=1;" vertex="1" parent="1">
          <mxGeometry x="440" y="510" width="120" height="60" as="geometry" />
        </mxCell>
        <mxCell id="iuLhSv0S5Rac431f_OxW-35" style="edgeStyle=orthogonalEdgeStyle;rounded=0;orthogonalLoop=1;jettySize=auto;html=1;entryX=0.5;entryY=1;entryDx=0;entryDy=0;" edge="1" parent="1" source="iuLhSv0S5Rac431f_OxW-19" target="iuLhSv0S5Rac431f_OxW-21">
          <mxGeometry relative="1" as="geometry" />
        </mxCell>
        <mxCell id="iuLhSv0S5Rac431f_OxW-19" value="balance -= value" style="rounded=1;whiteSpace=wrap;html=1;" vertex="1" parent="1">
          <mxGeometry x="610" y="510" width="120" height="60" as="geometry" />
        </mxCell>
        <mxCell id="iuLhSv0S5Rac431f_OxW-27" style="edgeStyle=orthogonalEdgeStyle;rounded=0;orthogonalLoop=1;jettySize=auto;html=1;exitX=0;exitY=0.5;exitDx=0;exitDy=0;entryX=1;entryY=0.5;entryDx=0;entryDy=0;" edge="1" parent="1" source="iuLhSv0S5Rac431f_OxW-21" target="iuLhSv0S5Rac431f_OxW-26">
          <mxGeometry relative="1" as="geometry" />
        </mxCell>
        <mxCell id="iuLhSv0S5Rac431f_OxW-29" value="false" style="edgeLabel;html=1;align=center;verticalAlign=middle;resizable=0;points=[];" vertex="1" connectable="0" parent="iuLhSv0S5Rac431f_OxW-27">
          <mxGeometry x="-0.08" relative="1" as="geometry">
            <mxPoint as="offset" />
          </mxGeometry>
        </mxCell>
        <mxCell id="iuLhSv0S5Rac431f_OxW-33" style="edgeStyle=orthogonalEdgeStyle;rounded=0;orthogonalLoop=1;jettySize=auto;html=1;exitX=0.5;exitY=0;exitDx=0;exitDy=0;entryX=0.5;entryY=1;entryDx=0;entryDy=0;" edge="1" parent="1" source="iuLhSv0S5Rac431f_OxW-21" target="iuLhSv0S5Rac431f_OxW-32">
          <mxGeometry relative="1" as="geometry" />
        </mxCell>
        <mxCell id="iuLhSv0S5Rac431f_OxW-39" value="true" style="edgeLabel;html=1;align=center;verticalAlign=middle;resizable=0;points=[];" vertex="1" connectable="0" parent="iuLhSv0S5Rac431f_OxW-33">
          <mxGeometry x="-0.1125" y="-2" relative="1" as="geometry">
            <mxPoint as="offset" />
          </mxGeometry>
        </mxCell>
        <mxCell id="iuLhSv0S5Rac431f_OxW-21" value="balance &amp;lt; 0" style="rhombus;whiteSpace=wrap;html=1;" vertex="1" parent="1">
          <mxGeometry x="610" y="380" width="120" height="80" as="geometry" />
        </mxCell>
        <mxCell id="iuLhSv0S5Rac431f_OxW-28" style="edgeStyle=orthogonalEdgeStyle;rounded=0;orthogonalLoop=1;jettySize=auto;html=1;exitX=0;exitY=0.5;exitDx=0;exitDy=0;entryX=1;entryY=0.5;entryDx=0;entryDy=0;" edge="1" parent="1" source="iuLhSv0S5Rac431f_OxW-26" target="iuLhSv0S5Rac431f_OxW-6">
          <mxGeometry relative="1" as="geometry" />
        </mxCell>
        <mxCell id="iuLhSv0S5Rac431f_OxW-26" value="i++" style="rounded=1;whiteSpace=wrap;html=1;" vertex="1" parent="1">
          <mxGeometry x="440" y="390" width="120" height="60" as="geometry" />
        </mxCell>
        <mxCell id="iuLhSv0S5Rac431f_OxW-31" value="end" style="ellipse;whiteSpace=wrap;html=1;" vertex="1" parent="1">
          <mxGeometry x="260" y="740" width="120" height="80" as="geometry" />
        </mxCell>
        <mxCell id="iuLhSv0S5Rac431f_OxW-34" style="edgeStyle=orthogonalEdgeStyle;rounded=0;orthogonalLoop=1;jettySize=auto;html=1;exitX=1;exitY=0.5;exitDx=0;exitDy=0;entryX=1;entryY=0.5;entryDx=0;entryDy=0;" edge="1" parent="1" source="iuLhSv0S5Rac431f_OxW-32" target="iuLhSv0S5Rac431f_OxW-31">
          <mxGeometry relative="1" as="geometry">
            <Array as="points">
              <mxPoint x="770" y="310" />
              <mxPoint x="770" y="780" />
            </Array>
          </mxGeometry>
        </mxCell>
        <mxCell id="iuLhSv0S5Rac431f_OxW-32" value="print &quot;debt&quot;" style="shape=parallelogram;perimeter=parallelogramPerimeter;whiteSpace=wrap;html=1;fixedSize=1;" vertex="1" parent="1">
          <mxGeometry x="610" y="280" width="120" height="60" as="geometry" />
        </mxCell>
        <mxCell id="iuLhSv0S5Rac431f_OxW-38" style="edgeStyle=orthogonalEdgeStyle;rounded=0;orthogonalLoop=1;jettySize=auto;html=1;exitX=0.5;exitY=1;exitDx=0;exitDy=0;entryX=0;entryY=0.5;entryDx=0;entryDy=0;" edge="1" parent="1" source="iuLhSv0S5Rac431f_OxW-36" target="iuLhSv0S5Rac431f_OxW-31">
          <mxGeometry relative="1" as="geometry" />
        </mxCell>
        <mxCell id="iuLhSv0S5Rac431f_OxW-36" value="print &quot;chinazes&quot;" style="shape=parallelogram;perimeter=parallelogramPerimeter;whiteSpace=wrap;html=1;fixedSize=1;" vertex="1" parent="1">
          <mxGeometry x="70" y="510" width="120" height="60" as="geometry" />
        </mxCell>
      </root>
    </mxGraphModel>
  </diagram>
</mxfile>
